FFmpeg version SVN-r25716, Copyright (c) 2000-2010 the FFmpeg developers  built on Nov 10 2010 12:23:18 with gcc 4.1.2 20080704 (Red Hat 4.1.2-48)  configuration: --enable-libmp3lame --enable-shared --disable-mmx --arch=x86_64  libavutil     50.33. 0 / 50.33. 0  libavcore      0.12. 1 /  0.12. 1  libavcodec    52.94. 4 / 52.94. 4  libavformat   52.84. 0 / 52.84. 0  libavdevice   52. 2. 2 / 52. 2. 2  libavfilter    1.59. 0 /  1.59. 0  libswscale     0.12. 0 /  0.12. 0Input #0, avi, from '/RAID10/data/converted_video_files/47529.avi':  Duration: 00:00:04.93, start: 0.000000, bitrate: 7934 kb/s    Stream #0.0: Video: msvideo1, rgb555le, 512x512, 30 tbr, 30 tbn, 30 tbc[buffer @ 0x1896c5a0] w:512 h:512 pixfmt:rgb555le[ffsink @ 0x1896cc90] auto-inserting filter 'auto-inserted scaler 0' between the filter 'src' and the filter 'out'[scale @ 0x1896cf80] w:512 h:512 fmt:rgb555le -> w:512 h:512 fmt:yuv420p flags:0x4Output #0, flv, to '/RAID10/data/converted_video_files/47529.flv':  Metadata:    encoder         : Lavf52.84.0    Stream #0.0: Video: flv, yuv420p, 512x512, q=2-31, 600 kb/s, 1k tbn, 24 tbcStream mapping:  Stream #0.0 -> #0.0Press [q] to stop encodingframe=   25 fps=  0 q=3.7 size=     165kB time=1.04 bitrate=1297.6kbits/s dup=0 drop=6    frame=   56 fps= 53 q=4.6 size=     266kB time=2.33 bitrate= 935.7kbits/s dup=0 drop=13    frame=   86 fps= 55 q=4.6 size=     369kB time=3.58 bitrate= 843.2kbits/s dup=0 drop=21    frame=  119 fps= 55 q=5.2 Lsize=     471kB time=4.96 bitrate= 777.7kbits/s dup=0 drop=29    video:469kB audio:0kB global headers:0kB muxing overhead 0.440513%